                    <svg class="w-10 h-10" viewBox="0 0 87 87" fill="none" xmlns="http://www.w3.org/2000/svg">
                      <path d="M43.007 0.198242L48.4167 23.0161L64.5106 5.96009L57.7866 28.4257L80.2522 21.7018L63.1963 37.7956L86.0141 43.2053L63.1963 48.615L80.2522 64.7088L57.7866 57.9848L64.5106 80.4505L48.4167 63.3945L43.007 86.2123L37.5974 63.3945L21.5035 80.4505L28.2275 57.9848L5.76185 64.7088L22.8178 48.615L0 43.2053L22.8178 37.7956L5.76185 21.7018L28.2275 28.4257L21.5035 5.96009L37.5974 23.0161L43.007 0.198242Z" fill="#6366f1"></path>
                      <path d="M43.007 0.198242L48.4167 23.0161L64.5106 5.96009L57.7866 28.4257L80.2522 21.7018L63.1963 37.7956L86.0141 43.2053L63.1963 48.615L80.2522 64.7088L57.7866 57.9848L64.5106 80.4505L48.4167 63.3945L43.007 86.2123L37.5974 63.3945L21.5035 80.4505L28.2275 57.9848L5.76185 64.7088L22.8178 48.615L0 43.2053L22.8178 37.7956L5.76185 21.7018L28.2275 28.4257L21.5035 5.96009L37.5974 23.0161L43.007 0.198242Z" fill="#6366f1" fill-opacity="0.2"></path>
                    </svg>
                  
                  