<svg class="w-10 h-10" viewBox="0 0 87 88" fill="none" xmlns="http://www.w3.org/2000/svg">
    <path d="M43.007 0.992676L43.4657 17.602C43.8567 31.7627 55.2441 43.1501 69.4047 43.5411L86.0141 43.9997L69.4047 44.4583C55.2441 44.8493 43.8567 56.2368 43.4657 70.3974L43.007 87.0068L42.5484 70.3974C42.1574 56.2368 30.77 44.8493 16.6093 44.4583L0 43.9997L16.6093 43.5411C30.77 43.1501 42.1574 31.7627 42.5484 17.602L43.007 0.992676Z" fill="#6366f1"></path>
    <path d="M43.007 0.992676L43.4657 17.602C43.8567 31.7627 55.2441 43.1501 69.4047 43.5411L86.0141 43.9997L69.4047 44.4583C55.2441 44.8493 43.8567 56.2368 43.4657 70.3974L43.007 87.0068L42.5484 70.3974C42.1574 56.2368 30.77 44.8493 16.6093 44.4583L0 43.9997L16.6093 43.5411C30.77 43.1501 42.1574 31.7627 42.5484 17.602L43.007 0.992676Z" fill="#6366f1" fill-opacity="0.2"></path>
</svg>
                  