<svg width="197" height="53" viewBox="0 0 197 53" fill="none" xmlns="http://www.w3.org/2000/svg">
<path d="M65.0869 38.5V11.9H75.7649C78.5263 11.9 80.6289 12.546 82.0729 13.838C83.5423 15.1047 84.2769 16.7387 84.2769 18.74C84.2769 20.412 83.8209 21.7547 82.9089 22.768C82.0223 23.756 80.9329 24.4273 79.6409 24.782C81.1609 25.086 82.4149 25.846 83.4029 27.062C84.3909 28.2527 84.8849 29.646 84.8849 31.242C84.8849 33.3447 84.1249 35.08 82.6049 36.448C81.0849 37.816 78.9316 38.5 76.1449 38.5H65.0869ZM69.9509 23.072H75.0429C76.4109 23.072 77.4623 22.7553 78.1969 22.122C78.9316 21.4887 79.2989 20.5893 79.2989 19.424C79.2989 18.3093 78.9316 17.4353 78.1969 16.802C77.4876 16.1433 76.4109 15.814 74.9669 15.814H69.9509V23.072ZM69.9509 34.548H75.3849C76.8289 34.548 77.9436 34.2187 78.7289 33.56C79.5396 32.876 79.9449 31.926 79.9449 30.71C79.9449 29.4687 79.5269 28.4933 78.6909 27.784C77.8549 27.0747 76.7276 26.72 75.3089 26.72H69.9509V34.548ZM88.9456 38.5V11.14H93.8096V38.5H88.9456ZM107.824 38.956C106 38.956 104.353 38.538 102.884 37.702C101.44 36.866 100.287 35.7133 99.4256 34.244C98.5896 32.7493 98.1716 31.0267 98.1716 29.076C98.1716 27.1253 98.6022 25.4153 99.4636 23.946C100.325 22.4513 101.478 21.286 102.922 20.45C104.391 19.614 106.038 19.196 107.862 19.196C109.66 19.196 111.282 19.614 112.726 20.45C114.195 21.286 115.348 22.4513 116.184 23.946C117.045 25.4153 117.476 27.1253 117.476 29.076C117.476 31.0267 117.045 32.7493 116.184 34.244C115.348 35.7133 114.195 36.866 112.726 37.702C111.256 38.538 109.622 38.956 107.824 38.956ZM107.824 34.738C109.09 34.738 110.192 34.2693 111.13 33.332C112.067 32.3693 112.536 30.9507 112.536 29.076C112.536 27.2013 112.067 25.7953 111.13 24.858C110.192 23.8953 109.103 23.414 107.862 23.414C106.57 23.414 105.455 23.8953 104.518 24.858C103.606 25.7953 103.15 27.2013 103.15 29.076C103.15 30.9507 103.606 32.3693 104.518 33.332C105.455 34.2693 106.557 34.738 107.824 34.738ZM131.058 38.956C129.133 38.956 127.436 38.538 125.966 37.702C124.497 36.866 123.332 35.7007 122.47 34.206C121.634 32.7113 121.216 31.0013 121.216 29.076C121.216 27.1507 121.634 25.4407 122.47 23.946C123.332 22.4513 124.497 21.286 125.966 20.45C127.436 19.614 129.133 19.196 131.058 19.196C133.465 19.196 135.492 19.8293 137.138 21.096C138.785 22.3373 139.836 24.06 140.292 26.264H135.162C134.909 25.352 134.402 24.6427 133.642 24.136C132.908 23.604 132.034 23.338 131.02 23.338C129.678 23.338 128.538 23.8447 127.6 24.858C126.663 25.8713 126.194 27.2773 126.194 29.076C126.194 30.8747 126.663 32.2807 127.6 33.294C128.538 34.3073 129.678 34.814 131.02 34.814C132.034 34.814 132.908 34.5607 133.642 34.054C134.402 33.5473 134.909 32.8253 135.162 31.888H140.292C139.836 34.016 138.785 35.726 137.138 37.018C135.492 38.31 133.465 38.956 131.058 38.956ZM144.61 38.5V11.14H149.474V27.29L156.162 19.652H161.938L154.224 28.24L163.192 38.5H157.112L149.474 29.038V38.5H144.61ZM166.207 38.5V11.14H171.071V38.5H166.207ZM178.397 46.86L182.767 37.246H181.627L174.293 19.652H179.575L184.857 32.914L190.367 19.652H195.535L183.565 46.86H178.397Z" fill="#94a3b8"/>
<mask id="mask0_1245_35570" style="mask-type:alpha" maskUnits="userSpaceOnUse" x="0" y="0" width="49" height="53">
<path d="M19.9473 1.41118C22.7643 -0.215184 26.2349 -0.215187 29.0519 1.41118L43.9509 10.0131C46.7678 11.6395 48.5031 14.6451 48.5031 17.8979V35.1017C48.5031 38.3545 46.7678 41.3601 43.9509 42.9865L29.0519 51.5884C26.2349 53.2148 22.7643 53.2148 19.9473 51.5884L5.04836 42.9865C2.23141 41.3601 0.496094 38.3545 0.496094 35.1017V17.8979C0.496094 14.6451 2.23141 11.6395 5.04836 10.0131L19.9473 1.41118Z" fill="#C4C4C4"/>
</mask>
<g mask="url(#mask0_1245_35570)">
<rect width="30.3817" height="30.3817" transform="matrix(0.866025 0.5 -0.866025 0.5 24.5 -1.66895)" fill="#4A3AFF"/>
<rect width="27.9554" height="27.9554" transform="matrix(0.866025 0.5 -2.20305e-08 1 0.289062 13.7417)" fill="#4CBFFF"/>
<rect width="27.9554" height="27.9554" transform="matrix(0.866025 -0.5 2.20305e-08 1 24.5 27.7231)" fill="#9328FF"/>
</g>
</svg>
