<svg width="219" height="58" viewBox="0 0 219 58" fill="none" xmlns="http://www.w3.org/2000/svg">
<path d="M86.8634 41.9565C84.1781 41.9565 81.8727 41.3865 79.9474 40.2465C78.0221 39.0812 76.5401 37.4725 75.5014 35.4205C74.4627 33.3432 73.9434 30.9492 73.9434 28.2385C73.9434 25.5278 74.4627 23.1338 75.5014 21.0565C76.5401 18.9792 78.0221 17.3578 79.9474 16.1925C81.8727 15.0272 84.1781 14.4445 86.8634 14.4445C90.0554 14.4445 92.6647 15.2425 94.6914 16.8385C96.7434 18.4092 98.0227 20.6258 98.5294 23.4885H93.1714C92.8421 22.0445 92.1327 20.9172 91.0434 20.1065C89.9794 19.2705 88.5607 18.8525 86.7874 18.8525C84.3301 18.8525 82.4047 19.6885 81.0114 21.3605C79.6181 23.0325 78.9214 25.3252 78.9214 28.2385C78.9214 31.1518 79.6181 33.4445 81.0114 35.1165C82.4047 36.7632 84.3301 37.5865 86.7874 37.5865C88.5607 37.5865 89.9794 37.2065 91.0434 36.4465C92.1327 35.6612 92.8421 34.5845 93.1714 33.2165H98.5294C98.0227 35.9525 96.7434 38.0932 94.6914 39.6385C92.6647 41.1838 90.0554 41.9565 86.8634 41.9565ZM109.219 41.9565C107.598 41.9565 106.268 41.7032 105.229 41.1965C104.19 40.6645 103.418 39.9678 102.911 39.1065C102.404 38.2452 102.151 37.2952 102.151 36.2565C102.151 34.5085 102.835 33.0898 104.203 32.0005C105.571 30.9112 107.623 30.3665 110.359 30.3665H115.147V29.9105C115.147 28.6185 114.78 27.6685 114.045 27.0605C113.31 26.4525 112.398 26.1485 111.309 26.1485C110.321 26.1485 109.46 26.3892 108.725 26.8705C107.99 27.3265 107.534 28.0105 107.357 28.9225H102.607C102.734 27.5545 103.19 26.3638 103.975 25.3505C104.786 24.3372 105.824 23.5645 107.091 23.0325C108.358 22.4752 109.776 22.1965 111.347 22.1965C114.032 22.1965 116.148 22.8678 117.693 24.2105C119.238 25.5532 120.011 27.4532 120.011 29.9105V41.5005H115.869L115.413 38.4605C114.856 39.4738 114.07 40.3098 113.057 40.9685C112.069 41.6272 110.79 41.9565 109.219 41.9565ZM110.321 38.1565C111.714 38.1565 112.791 37.7005 113.551 36.7885C114.336 35.8765 114.83 34.7492 115.033 33.4065H110.891C109.599 33.4065 108.674 33.6472 108.117 34.1285C107.56 34.5845 107.281 35.1545 107.281 35.8385C107.281 36.5732 107.56 37.1432 108.117 37.5485C108.674 37.9538 109.409 38.1565 110.321 38.1565ZM124.653 41.5005V22.6525H128.947L129.365 25.1985C129.973 24.2865 130.771 23.5645 131.759 23.0325C132.772 22.4752 133.937 22.1965 135.255 22.1965C138.168 22.1965 140.233 23.3238 141.449 25.5785C142.133 24.5398 143.045 23.7165 144.185 23.1085C145.35 22.5005 146.617 22.1965 147.985 22.1965C150.442 22.1965 152.329 22.9312 153.647 24.4005C154.964 25.8698 155.623 28.0232 155.623 30.8605V41.5005H150.759V31.3165C150.759 29.6952 150.442 28.4538 149.809 27.5925C149.201 26.7312 148.251 26.3005 146.959 26.3005C145.641 26.3005 144.577 26.7818 143.767 27.7445C142.981 28.7072 142.589 30.0498 142.589 31.7725V41.5005H137.725V31.3165C137.725 29.6952 137.408 28.4538 136.775 27.5925C136.141 26.7312 135.166 26.3005 133.849 26.3005C132.557 26.3005 131.505 26.7818 130.695 27.7445C129.909 28.7072 129.517 30.0498 129.517 31.7725V41.5005H124.653ZM169.399 41.9565C167.499 41.9565 165.814 41.5512 164.345 40.7405C162.875 39.9298 161.723 38.7898 160.887 37.3205C160.051 35.8512 159.633 34.1538 159.633 32.2285C159.633 30.2778 160.038 28.5425 160.849 27.0225C161.685 25.5025 162.825 24.3245 164.269 23.4885C165.738 22.6272 167.461 22.1965 169.437 22.1965C171.286 22.1965 172.92 22.6018 174.339 23.4125C175.757 24.2232 176.859 25.3378 177.645 26.7565C178.455 28.1498 178.861 29.7078 178.861 31.4305C178.861 31.7092 178.848 32.0005 178.823 32.3045C178.823 32.6085 178.81 32.9252 178.785 33.2545H164.459C164.56 34.7238 165.067 35.8765 165.979 36.7125C166.916 37.5485 168.043 37.9665 169.361 37.9665C170.349 37.9665 171.172 37.7512 171.831 37.3205C172.515 36.8645 173.021 36.2818 173.351 35.5725H178.291C177.936 36.7632 177.341 37.8525 176.505 38.8405C175.694 39.8032 174.681 40.5632 173.465 41.1205C172.274 41.6778 170.919 41.9565 169.399 41.9565ZM169.437 26.1485C168.246 26.1485 167.195 26.4905 166.283 27.1745C165.371 27.8332 164.788 28.8465 164.535 30.2145H173.921C173.845 28.9732 173.389 27.9852 172.553 27.2505C171.717 26.5158 170.678 26.1485 169.437 26.1485ZM182.951 41.5005V22.6525H187.283L187.739 26.1865C188.423 24.9705 189.348 24.0078 190.513 23.2985C191.704 22.5638 193.097 22.1965 194.693 22.1965V27.3265H193.325C192.261 27.3265 191.311 27.4912 190.475 27.8205C189.639 28.1498 188.981 28.7198 188.499 29.5305C188.043 30.3412 187.815 31.4685 187.815 32.9125V41.5005H182.951ZM204.516 41.9565C202.895 41.9565 201.565 41.7032 200.526 41.1965C199.487 40.6645 198.715 39.9678 198.208 39.1065C197.701 38.2452 197.448 37.2952 197.448 36.2565C197.448 34.5085 198.132 33.0898 199.5 32.0005C200.868 30.9112 202.92 30.3665 205.656 30.3665H210.444V29.9105C210.444 28.6185 210.077 27.6685 209.342 27.0605C208.607 26.4525 207.695 26.1485 206.606 26.1485C205.618 26.1485 204.757 26.3892 204.022 26.8705C203.287 27.3265 202.831 28.0105 202.654 28.9225H197.904C198.031 27.5545 198.487 26.3638 199.272 25.3505C200.083 24.3372 201.121 23.5645 202.388 23.0325C203.655 22.4752 205.073 22.1965 206.644 22.1965C209.329 22.1965 211.445 22.8678 212.99 24.2105C214.535 25.5532 215.308 27.4532 215.308 29.9105V41.5005H211.166L210.71 38.4605C210.153 39.4738 209.367 40.3098 208.354 40.9685C207.366 41.6272 206.087 41.9565 204.516 41.9565ZM205.618 38.1565C207.011 38.1565 208.088 37.7005 208.848 36.7885C209.633 35.8765 210.127 34.7492 210.33 33.4065H206.188C204.896 33.4065 203.971 33.6472 203.414 34.1285C202.857 34.5845 202.578 35.1545 202.578 35.8385C202.578 36.5732 202.857 37.1432 203.414 37.5485C203.971 37.9538 204.706 38.1565 205.618 38.1565Z" fill="#94a3b8"/>
<mask id="mask0_1219_43368" style="mask-type:alpha" maskUnits="userSpaceOnUse" x="0" y="0" width="58" height="58">
<circle cx="29.3574" cy="29" r="28.5918" fill="#94a3b8"/>
</mask>
<g mask="url(#mask0_1219_43368)">
<circle cx="15.7553" cy="-4.66944" r="23.7214" transform="rotate(-22 15.7553 -4.66944)" fill="#4A3AFF"/>
<circle cx="42.9623" cy="62.6685" r="23.7214" transform="rotate(-22 42.9623 62.6685)" fill="#4A3AFF"/>
<circle cx="-4.31014" cy="42.603" r="23.7214" transform="rotate(-22 -4.31014 42.603)" fill="#9328FF"/>
<circle cx="62.4037" cy="13.8545" r="23.7214" transform="rotate(-22 62.4037 13.8545)" fill="#9328FF"/>
</g>
</svg>
