<svg width="225" height="46" viewBox="0 0 225 46" fill="none" xmlns="http://www.w3.org/2000/svg">
<rect x="18.1855" y="36.7036" width="29.4123" height="8.99589" fill="#4A3AFF"/>
<circle cx="18.1853" cy="27.7278" r="17.9715" fill="#4A3AFF"/>
<circle cx="46.0872" cy="22.9998" r="22.6995" fill="#9328FF"/>
<path d="M97.4171 35.956C94.7318 35.956 92.4264 35.386 90.5011 34.246C88.5758 33.0807 87.0938 31.472 86.0551 29.42C85.0164 27.3427 84.4971 24.9487 84.4971 22.238C84.4971 19.5273 85.0164 17.1333 86.0551 15.056C87.0938 12.9787 88.5758 11.3573 90.5011 10.192C92.4264 9.02667 94.7318 8.444 97.4171 8.444C100.609 8.444 103.218 9.242 105.245 10.838C107.297 12.4087 108.576 14.6253 109.083 17.488H103.725C103.396 16.044 102.686 14.9167 101.597 14.106C100.533 13.27 99.1144 12.852 97.3411 12.852C94.8838 12.852 92.9584 13.688 91.5651 15.36C90.1718 17.032 89.4751 19.3247 89.4751 22.238C89.4751 25.1513 90.1718 27.444 91.5651 29.116C92.9584 30.7627 94.8838 31.586 97.3411 31.586C99.1144 31.586 100.533 31.206 101.597 30.446C102.686 29.6607 103.396 28.584 103.725 27.216H109.083C108.576 29.952 107.297 32.0927 105.245 33.638C103.218 35.1833 100.609 35.956 97.4171 35.956ZM113.275 35.5V8.14H118.139V35.5H113.275ZM132.153 35.956C130.329 35.956 128.682 35.538 127.213 34.702C125.769 33.866 124.616 32.7133 123.755 31.244C122.919 29.7493 122.501 28.0267 122.501 26.076C122.501 24.1253 122.931 22.4153 123.793 20.946C124.654 19.4513 125.807 18.286 127.251 17.45C128.72 16.614 130.367 16.196 132.191 16.196C133.989 16.196 135.611 16.614 137.055 17.45C138.524 18.286 139.677 19.4513 140.513 20.946C141.374 22.4153 141.805 24.1253 141.805 26.076C141.805 28.0267 141.374 29.7493 140.513 31.244C139.677 32.7133 138.524 33.866 137.055 34.702C135.585 35.538 133.951 35.956 132.153 35.956ZM132.153 31.738C133.419 31.738 134.521 31.2693 135.459 30.332C136.396 29.3693 136.865 27.9507 136.865 26.076C136.865 24.2013 136.396 22.7953 135.459 21.858C134.521 20.8953 133.432 20.414 132.191 20.414C130.899 20.414 129.784 20.8953 128.847 21.858C127.935 22.7953 127.479 24.2013 127.479 26.076C127.479 27.9507 127.935 29.3693 128.847 30.332C129.784 31.2693 130.886 31.738 132.153 31.738ZM153.222 35.956C150.866 35.956 149.042 35.2213 147.75 33.752C146.483 32.2827 145.85 30.1293 145.85 27.292V16.652H150.676V26.836C150.676 28.4573 151.005 29.6987 151.664 30.56C152.322 31.4213 153.361 31.852 154.78 31.852C156.122 31.852 157.224 31.3707 158.086 30.408C158.972 29.4453 159.416 28.1027 159.416 26.38V16.652H164.28V35.5H159.986L159.606 32.308C159.023 33.4227 158.174 34.3093 157.06 34.968C155.97 35.6267 154.691 35.956 153.222 35.956ZM177.937 35.956C176.163 35.956 174.58 35.5253 173.187 34.664C171.793 33.8027 170.691 32.6247 169.881 31.13C169.07 29.6353 168.665 27.938 168.665 26.038C168.665 24.138 169.07 22.4533 169.881 20.984C170.691 19.4893 171.793 18.324 173.187 17.488C174.58 16.6267 176.163 16.196 177.937 16.196C179.355 16.196 180.597 16.462 181.661 16.994C182.725 17.526 183.586 18.2733 184.245 19.236V8.14H189.109V35.5H184.777L184.245 32.802C183.637 33.638 182.826 34.3727 181.813 35.006C180.825 35.6393 179.533 35.956 177.937 35.956ZM178.963 31.7C180.533 31.7 181.813 31.1807 182.801 30.142C183.814 29.078 184.321 27.7227 184.321 26.076C184.321 24.4293 183.814 23.0867 182.801 22.048C181.813 20.984 180.533 20.452 178.963 20.452C177.417 20.452 176.138 20.9713 175.125 22.01C174.111 23.0487 173.605 24.3913 173.605 26.038C173.605 27.6847 174.111 29.04 175.125 30.104C176.138 31.168 177.417 31.7 178.963 31.7ZM194.062 35.5V8.14H198.926V35.5H194.062ZM206.252 43.86L210.622 34.246H209.482L202.148 16.652H207.43L212.712 29.914L218.222 16.652H223.39L211.42 43.86H206.252Z" fill="#94a3b8"/>
</svg>
