<svg width="233" height="56" viewBox="0 0 233 56" fill="none" xmlns="http://www.w3.org/2000/svg">
<path d="M75.793 40.4966V13.8966H84.875C87.991 13.8966 90.5497 14.4539 92.551 15.5686C94.5777 16.6579 96.0723 18.2032 97.035 20.2046C98.023 22.1806 98.517 24.5112 98.517 27.1966C98.517 29.8819 98.023 32.2252 97.035 34.2266C96.0723 36.2026 94.5777 37.7479 92.551 38.8626C90.5497 39.9519 87.991 40.4966 84.875 40.4966H75.793ZM80.657 36.3166H84.647C86.8763 36.3166 88.637 35.9619 89.929 35.2526C91.221 34.5179 92.1457 33.4792 92.703 32.1366C93.2603 30.7686 93.539 29.1219 93.539 27.1966C93.539 25.2966 93.2603 23.6626 92.703 22.2946C92.1457 20.9266 91.221 19.8752 89.929 19.1406C88.637 18.4059 86.8763 18.0386 84.647 18.0386H80.657V36.3166ZM111.739 40.9526C109.915 40.9526 108.268 40.5346 106.799 39.6986C105.355 38.8626 104.202 37.7099 103.341 36.2406C102.505 34.7459 102.087 33.0232 102.087 31.0726C102.087 29.1219 102.517 27.4119 103.379 25.9426C104.24 24.4479 105.393 23.2826 106.837 22.4466C108.306 21.6106 109.953 21.1926 111.777 21.1926C113.575 21.1926 115.197 21.6106 116.641 22.4466C118.11 23.2826 119.263 24.4479 120.099 25.9426C120.96 27.4119 121.391 29.1219 121.391 31.0726C121.391 33.0232 120.96 34.7459 120.099 36.2406C119.263 37.7099 118.11 38.8626 116.641 39.6986C115.171 40.5346 113.537 40.9526 111.739 40.9526ZM111.739 36.7346C113.005 36.7346 114.107 36.2659 115.045 35.3286C115.982 34.3659 116.451 32.9472 116.451 31.0726C116.451 29.1979 115.982 27.7919 115.045 26.8546C114.107 25.8919 113.018 25.4106 111.777 25.4106C110.485 25.4106 109.37 25.8919 108.433 26.8546C107.521 27.7919 107.065 29.1979 107.065 31.0726C107.065 32.9472 107.521 34.3659 108.433 35.3286C109.37 36.2659 110.472 36.7346 111.739 36.7346ZM134.974 40.9526C133.048 40.9526 131.351 40.5346 129.882 39.6986C128.412 38.8626 127.247 37.6972 126.386 36.2026C125.55 34.7079 125.132 32.9979 125.132 31.0726C125.132 29.1472 125.55 27.4372 126.386 25.9426C127.247 24.4479 128.412 23.2826 129.882 22.4466C131.351 21.6106 133.048 21.1926 134.974 21.1926C137.38 21.1926 139.407 21.8259 141.054 23.0926C142.7 24.3339 143.752 26.0566 144.208 28.2606H139.078C138.824 27.3486 138.318 26.6392 137.558 26.1326C136.823 25.6006 135.949 25.3346 134.936 25.3346C133.593 25.3346 132.453 25.8412 131.516 26.8546C130.578 27.8679 130.11 29.2739 130.11 31.0726C130.11 32.8712 130.578 34.2772 131.516 35.2906C132.453 36.3039 133.593 36.8106 134.936 36.8106C135.949 36.8106 136.823 36.5572 137.558 36.0506C138.318 35.5439 138.824 34.8219 139.078 33.8846H144.208C143.752 36.0126 142.7 37.7226 141.054 39.0146C139.407 40.3066 137.38 40.9526 134.974 40.9526ZM156.663 40.4966C154.687 40.4966 153.104 40.0152 151.913 39.0526C150.722 38.0899 150.127 36.3799 150.127 33.9226V25.7146H146.897V21.6486H150.127L150.697 16.5946H154.991V21.6486H160.083V25.7146H154.991V33.9606C154.991 34.8726 155.181 35.5059 155.561 35.8606C155.966 36.1899 156.65 36.3546 157.613 36.3546H159.969V40.4966H156.663ZM172.821 40.9526C170.997 40.9526 169.35 40.5346 167.881 39.6986C166.437 38.8626 165.284 37.7099 164.423 36.2406C163.587 34.7459 163.169 33.0232 163.169 31.0726C163.169 29.1219 163.599 27.4119 164.461 25.9426C165.322 24.4479 166.475 23.2826 167.919 22.4466C169.388 21.6106 171.035 21.1926 172.859 21.1926C174.657 21.1926 176.279 21.6106 177.723 22.4466C179.192 23.2826 180.345 24.4479 181.181 25.9426C182.042 27.4119 182.473 29.1219 182.473 31.0726C182.473 33.0232 182.042 34.7459 181.181 36.2406C180.345 37.7099 179.192 38.8626 177.723 39.6986C176.253 40.5346 174.619 40.9526 172.821 40.9526ZM172.821 36.7346C174.087 36.7346 175.189 36.2659 176.127 35.3286C177.064 34.3659 177.533 32.9472 177.533 31.0726C177.533 29.1979 177.064 27.7919 176.127 26.8546C175.189 25.8919 174.1 25.4106 172.859 25.4106C171.567 25.4106 170.452 25.8919 169.515 26.8546C168.603 27.7919 168.147 29.1979 168.147 31.0726C168.147 32.9472 168.603 34.3659 169.515 35.3286C170.452 36.2659 171.554 36.7346 172.821 36.7346ZM186.822 40.4966V21.6486H191.154L191.61 25.1826C192.294 23.9666 193.218 23.0039 194.384 22.2946C195.574 21.5599 196.968 21.1926 198.564 21.1926V26.3226H197.196C196.132 26.3226 195.182 26.4872 194.346 26.8166C193.51 27.1459 192.851 27.7159 192.37 28.5266C191.914 29.3372 191.686 30.4646 191.686 31.9086V40.4966H186.822ZM201.888 40.4966V13.1366H206.752V40.4966H201.888ZM214.078 48.8566L218.448 39.2426H217.308L209.974 21.6486H215.256L220.538 34.9106L226.048 21.6486H231.216L219.246 48.8566H214.078Z" fill="#94a3b8"/>
<path d="M46.9506 16.7421H38.4127C33.3704 16.7421 21.9975 14.191 25.3589 0.081543C23.26 0.912057 21.4592 2.35425 20.1901 4.22097C18.9211 6.08768 18.2424 8.29274 18.2422 10.55V14.6779C18.2422 15.4003 18.2667 16.1069 18.3158 16.7978C29.0665 17.5172 39.7083 25.1734 40.6852 39.2021C41.2408 39.24 41.797 39.259 42.3537 39.259H46.9506C49.9365 39.259 52.8 38.0729 54.9113 35.9616C57.0226 33.8503 58.2087 30.9868 58.2087 28.0009C58.2087 25.0151 57.0226 22.1516 54.9113 20.0403C52.8 17.929 49.9365 16.7429 46.9506 16.7429V16.7421Z" fill="#9328FF"/>
<path d="M16.6473 16.7422H12.05C9.06421 16.7422 6.20069 17.9283 4.08939 20.0396C1.9781 22.1509 0.791992 25.0144 0.791992 28.0002C0.791992 30.986 1.9781 33.8496 4.08939 35.9609C6.20069 38.0721 9.06421 39.2583 12.05 39.2583H20.5876C25.6294 39.2583 37.0023 41.8093 33.6415 55.9193C35.7402 55.0886 37.5409 53.6463 38.8099 51.7795C40.0788 49.9128 40.7575 47.7078 40.7579 45.4506V41.3221C40.7579 25.1863 28.4687 16.7422 16.6473 16.7422Z" fill="#4A3AFF"/>
</svg>
