<svg width="215" height="42" viewBox="0 0 215 42" fill="none" xmlns="http://www.w3.org/2000/svg">
<path d="M55.0869 33.5V6.9H60.8629L69.3369 23.772L77.6969 6.9H83.4729V33.5H78.6089V15.146L71.1989 29.7H67.3609L59.9509 15.146V33.5H55.0869ZM95.0178 33.956C93.3965 33.956 92.0665 33.7027 91.0278 33.196C89.9891 32.664 89.2165 31.9673 88.7098 31.106C88.2031 30.2447 87.9498 29.2947 87.9498 28.256C87.9498 26.508 88.6338 25.0893 90.0018 24C91.3698 22.9107 93.4218 22.366 96.1578 22.366H100.946V21.91C100.946 20.618 100.578 19.668 99.8438 19.06C99.1091 18.452 98.1971 18.148 97.1078 18.148C96.1198 18.148 95.2585 18.3887 94.5238 18.87C93.7891 19.326 93.3331 20.01 93.1558 20.922H88.4058C88.5325 19.554 88.9885 18.3633 89.7738 17.35C90.5845 16.3367 91.6231 15.564 92.8898 15.032C94.1565 14.4747 95.5751 14.196 97.1458 14.196C99.8311 14.196 101.946 14.8673 103.492 16.21C105.037 17.5527 105.81 19.4527 105.81 21.91V33.5H101.668L101.212 30.46C100.654 31.4733 99.8691 32.3093 98.8558 32.968C97.8678 33.6267 96.5885 33.956 95.0178 33.956ZM96.1198 30.156C97.5131 30.156 98.5898 29.7 99.3498 28.788C100.135 27.876 100.629 26.7487 100.832 25.406H96.6898C95.3978 25.406 94.4731 25.6467 93.9158 26.128C93.3585 26.584 93.0798 27.154 93.0798 27.838C93.0798 28.5727 93.3585 29.1427 93.9158 29.548C94.4731 29.9533 95.2078 30.156 96.1198 30.156ZM110.451 33.5V14.652H114.783L115.239 18.186C115.923 16.97 116.848 16.0073 118.013 15.298C119.204 14.5633 120.597 14.196 122.193 14.196V19.326H120.825C119.761 19.326 118.811 19.4907 117.975 19.82C117.139 20.1493 116.481 20.7193 115.999 21.53C115.543 22.3407 115.315 23.468 115.315 24.912V33.5H110.451ZM125.518 33.5V6.14H130.382V22.29L137.07 14.652H142.846L135.132 23.24L144.1 33.5H138.02L130.382 24.038V33.5H125.518ZM154.715 33.956C152.815 33.956 151.13 33.5507 149.661 32.74C148.192 31.9293 147.039 30.7893 146.203 29.32C145.367 27.8507 144.949 26.1533 144.949 24.228C144.949 22.2773 145.354 20.542 146.165 19.022C147.001 17.502 148.141 16.324 149.585 15.488C151.054 14.6267 152.777 14.196 154.753 14.196C156.602 14.196 158.236 14.6013 159.655 15.412C161.074 16.2227 162.176 17.3373 162.961 18.756C163.772 20.1493 164.177 21.7073 164.177 23.43C164.177 23.7087 164.164 24 164.139 24.304C164.139 24.608 164.126 24.9247 164.101 25.254H149.775C149.876 26.7233 150.383 27.876 151.295 28.712C152.232 29.548 153.36 29.966 154.677 29.966C155.665 29.966 156.488 29.7507 157.147 29.32C157.831 28.864 158.338 28.2813 158.667 27.572H163.607C163.252 28.7627 162.657 29.852 161.821 30.84C161.01 31.8027 159.997 32.5627 158.781 33.12C157.59 33.6773 156.235 33.956 154.715 33.956ZM154.753 18.148C153.562 18.148 152.511 18.49 151.599 19.174C150.687 19.8327 150.104 20.846 149.851 22.214H159.237C159.161 20.9727 158.705 19.9847 157.869 19.25C157.033 18.5153 155.994 18.148 154.753 18.148ZM176.332 33.5C174.356 33.5 172.773 33.0187 171.582 32.056C170.391 31.0933 169.796 29.3833 169.796 26.926V18.718H166.566V14.652H169.796L170.366 9.598H174.66V14.652H179.752V18.718H174.66V26.964C174.66 27.876 174.85 28.5093 175.23 28.864C175.635 29.1933 176.319 29.358 177.282 29.358H179.638V33.5H176.332ZM183.928 33.5V6.14H188.792V33.5H183.928ZM196.118 41.86L200.488 32.246H199.348L192.014 14.652H197.296L202.578 27.914L208.088 14.652H213.256L201.286 41.86H196.118Z" fill="#94a3b8"/>
<rect x="0.498047" y="24.9146" width="9.72" height="15.11" rx="4.86" fill="#4A3AFF"/>
<rect x="0.498047" y="1.78662" width="9.72" height="9.72" rx="4.86" fill="#9328FF"/>
<rect x="14.6406" y="13.0352" width="9.72" height="26.9894" rx="4.86" fill="#4A3AFF"/>
<rect x="28.7832" y="1.78662" width="9.72" height="38.2377" rx="4.86" fill="#4A3AFF"/>
</svg>
