<svg width="187" height="44" viewBox="0 0 187 44" fill="none" xmlns="http://www.w3.org/2000/svg">
<path d="M58.1924 33.5V6.9H67.9584C70.0864 6.9 71.8344 7.26733 73.2024 8.002C74.5957 8.71133 75.6344 9.68667 76.3184 10.928C77.0024 12.144 77.3444 13.4993 77.3444 14.994C77.3444 16.6153 76.9137 18.0973 76.0524 19.44C75.2164 20.7827 73.8991 21.758 72.1004 22.366L77.6104 33.5H72.0244L67.0844 23.012H63.0564V33.5H58.1924ZM63.0564 19.44H67.6544C69.2757 19.44 70.4664 19.0473 71.2264 18.262C71.9864 17.4767 72.3664 16.438 72.3664 15.146C72.3664 13.8793 71.9864 12.866 71.2264 12.106C70.4917 11.346 69.2884 10.966 67.6164 10.966H63.0564V19.44ZM89.7618 33.956C87.8618 33.956 86.1771 33.5507 84.7078 32.74C83.2385 31.9293 82.0858 30.7893 81.2498 29.32C80.4138 27.8507 79.9958 26.1533 79.9958 24.228C79.9958 22.2773 80.4011 20.542 81.2118 19.022C82.0478 17.502 83.1878 16.324 84.6318 15.488C86.1011 14.6267 87.8238 14.196 89.7998 14.196C91.6491 14.196 93.2831 14.6013 94.7018 15.412C96.1205 16.2227 97.2225 17.3373 98.0078 18.756C98.8185 20.1493 99.2238 21.7073 99.2238 23.43C99.2238 23.7087 99.2111 24 99.1858 24.304C99.1858 24.608 99.1731 24.9247 99.1478 25.254H84.8218C84.9231 26.7233 85.4298 27.876 86.3418 28.712C87.2791 29.548 88.4065 29.966 89.7238 29.966C90.7118 29.966 91.5351 29.7507 92.1938 29.32C92.8778 28.864 93.3845 28.2813 93.7138 27.572H98.6538C98.2991 28.7627 97.7038 29.852 96.8678 30.84C96.0571 31.8027 95.0438 32.5627 93.8278 33.12C92.6371 33.6773 91.2818 33.956 89.7618 33.956ZM89.7998 18.148C88.6091 18.148 87.5578 18.49 86.6458 19.174C85.7338 19.8327 85.1511 20.846 84.8978 22.214H94.2838C94.2078 20.9727 93.7518 19.9847 92.9158 19.25C92.0798 18.5153 91.0411 18.148 89.7998 18.148ZM109.813 33.956C108.191 33.956 106.861 33.7027 105.823 33.196C104.784 32.664 104.011 31.9673 103.505 31.106C102.998 30.2447 102.745 29.2947 102.745 28.256C102.745 26.508 103.429 25.0893 104.797 24C106.165 22.9107 108.217 22.366 110.953 22.366H115.741V21.91C115.741 20.618 115.373 19.668 114.639 19.06C113.904 18.452 112.992 18.148 111.903 18.148C110.915 18.148 110.053 18.3887 109.319 18.87C108.584 19.326 108.128 20.01 107.951 20.922H103.201C103.327 19.554 103.783 18.3633 104.569 17.35C105.379 16.3367 106.418 15.564 107.685 15.032C108.951 14.4747 110.37 14.196 111.941 14.196C114.626 14.196 116.741 14.8673 118.287 16.21C119.832 17.5527 120.605 19.4527 120.605 21.91V33.5H116.463L116.007 30.46C115.449 31.4733 114.664 32.3093 113.651 32.968C112.663 33.6267 111.383 33.956 109.813 33.956ZM110.915 30.156C112.308 30.156 113.385 29.7 114.145 28.788C114.93 27.876 115.424 26.7487 115.627 25.406H111.485C110.193 25.406 109.268 25.6467 108.711 26.128C108.153 26.584 107.875 27.154 107.875 27.838C107.875 28.5727 108.153 29.1427 108.711 29.548C109.268 29.9533 110.003 30.156 110.915 30.156ZM125.246 33.5V6.14H130.11V33.5H125.246ZM143.478 33.5C141.502 33.5 139.919 33.0187 138.728 32.056C137.538 31.0933 136.942 29.3833 136.942 26.926V18.718H133.712V14.652H136.942L137.512 9.598H141.806V14.652H146.898V18.718H141.806V26.964C141.806 27.876 141.996 28.5093 142.376 28.864C142.782 29.1933 143.466 29.358 144.428 29.358H146.784V33.5H143.478ZM159.636 33.956C157.812 33.956 156.165 33.538 154.696 32.702C153.252 31.866 152.099 30.7133 151.238 29.244C150.402 27.7493 149.984 26.0267 149.984 24.076C149.984 22.1253 150.415 20.4153 151.276 18.946C152.137 17.4513 153.29 16.286 154.734 15.45C156.203 14.614 157.85 14.196 159.674 14.196C161.473 14.196 163.094 14.614 164.538 15.45C166.007 16.286 167.16 17.4513 167.996 18.946C168.857 20.4153 169.288 22.1253 169.288 24.076C169.288 26.0267 168.857 27.7493 167.996 29.244C167.16 30.7133 166.007 31.866 164.538 32.702C163.069 33.538 161.435 33.956 159.636 33.956ZM159.636 29.738C160.903 29.738 162.005 29.2693 162.942 28.332C163.879 27.3693 164.348 25.9507 164.348 24.076C164.348 22.2013 163.879 20.7953 162.942 19.858C162.005 18.8953 160.915 18.414 159.674 18.414C158.382 18.414 157.267 18.8953 156.33 19.858C155.418 20.7953 154.962 22.2013 154.962 24.076C154.962 25.9507 155.418 27.3693 156.33 28.332C157.267 29.2693 158.369 29.738 159.636 29.738ZM173.637 33.5V14.652H177.969L178.425 18.186C179.109 16.97 180.034 16.0073 181.199 15.298C182.39 14.5633 183.783 14.196 185.379 14.196V19.326H184.011C182.947 19.326 181.997 19.4907 181.161 19.82C180.325 20.1493 179.666 20.7193 179.185 21.53C178.729 22.3407 178.501 23.468 178.501 24.912V33.5H173.637Z" fill="#94a3b8"/>
<path d="M2.87109 2.59863C2.87109 1.49406 3.76652 0.598633 4.87109 0.598633H11.2365C12.3411 0.598633 13.2365 1.49406 13.2365 2.59863V16.8074H2.87109V2.59863Z" fill="#9328FF"/>
<path d="M4.00048 40.9368H38.4787C39.1024 40.9368 39.6081 40.4311 39.6081 39.8074V19.3718C39.6081 19.0376 39.4601 18.7207 39.204 18.5061L21.9649 4.06184C21.5453 3.71024 20.9339 3.71023 20.5143 4.06184L3.27515 18.5061C3.01904 18.7207 2.87109 19.0376 2.87109 19.3718V39.8074C2.87109 40.4311 3.37674 40.9368 4.00048 40.9368Z" fill="#4A3AFF" stroke="#4A3AFF" stroke-width="5.5" stroke-linecap="round"/>
</svg>
