<svg width="239" height="62" viewBox="0 0 239 62" fill="none" xmlns="http://www.w3.org/2000/svg">
<path d="M84.8613 43.956C82.9106 43.956 81.188 43.6267 79.6933 42.968C78.1986 42.284 77.0206 41.3213 76.1593 40.08C75.298 38.8133 74.8546 37.2807 74.8293 35.482H79.9593C80.01 36.7233 80.4533 37.7747 81.2893 38.636C82.1506 39.472 83.3286 39.89 84.8233 39.89C86.1153 39.89 87.1413 39.586 87.9013 38.978C88.6613 38.3447 89.0413 37.5087 89.0413 36.47C89.0413 35.3807 88.6993 34.532 88.0153 33.924C87.3566 33.316 86.47 32.822 85.3553 32.442C84.2406 32.062 83.05 31.6567 81.7833 31.226C79.7313 30.5167 78.1606 29.6047 77.0713 28.49C76.0073 27.3753 75.4753 25.8933 75.4753 24.044C75.45 22.4733 75.8173 21.1307 76.5773 20.016C77.3626 18.876 78.4266 18.002 79.7693 17.394C81.112 16.7607 82.6573 16.444 84.4053 16.444C86.1786 16.444 87.7366 16.7607 89.0793 17.394C90.4473 18.0273 91.5113 18.914 92.2713 20.054C93.0566 21.194 93.4746 22.5493 93.5253 24.12H88.3193C88.294 23.1827 87.9266 22.3593 87.2173 21.65C86.5333 20.9153 85.5706 20.548 84.3293 20.548C83.2653 20.5227 82.366 20.7887 81.6313 21.346C80.922 21.878 80.5673 22.6633 80.5673 23.702C80.5673 24.5887 80.846 25.298 81.4033 25.83C81.9606 26.3367 82.7206 26.7673 83.6833 27.122C84.646 27.4767 85.748 27.8567 86.9893 28.262C88.3066 28.718 89.51 29.25 90.5993 29.858C91.6886 30.466 92.5626 31.2767 93.2213 32.29C93.88 33.278 94.2093 34.5573 94.2093 36.128C94.2093 37.5213 93.8546 38.8133 93.1453 40.004C92.436 41.1947 91.3846 42.1573 89.9913 42.892C88.598 43.6013 86.888 43.956 84.8613 43.956ZM107.383 43.956C105.559 43.956 103.912 43.538 102.443 42.702C100.999 41.866 99.8465 40.7133 98.9851 39.244C98.1491 37.7493 97.7311 36.0267 97.7311 34.076C97.7311 32.1253 98.1618 30.4153 99.0231 28.946C99.8845 27.4513 101.037 26.286 102.481 25.45C103.95 24.614 105.597 24.196 107.421 24.196C109.22 24.196 110.841 24.614 112.285 25.45C113.754 26.286 114.907 27.4513 115.743 28.946C116.604 30.4153 117.035 32.1253 117.035 34.076C117.035 36.0267 116.604 37.7493 115.743 39.244C114.907 40.7133 113.754 41.866 112.285 42.702C110.816 43.538 109.182 43.956 107.383 43.956ZM107.383 39.738C108.65 39.738 109.752 39.2693 110.689 38.332C111.626 37.3693 112.095 35.9507 112.095 34.076C112.095 32.2013 111.626 30.7953 110.689 29.858C109.752 28.8953 108.662 28.414 107.421 28.414C106.129 28.414 105.014 28.8953 104.077 29.858C103.165 30.7953 102.709 32.2013 102.709 34.076C102.709 35.9507 103.165 37.3693 104.077 38.332C105.014 39.2693 106.116 39.738 107.383 39.738ZM122.258 43.5V28.718H119.674V24.652H122.258V22.448C122.258 20.168 122.828 18.5467 123.968 17.584C125.133 16.6213 126.704 16.14 128.68 16.14H130.77V20.282H129.44C128.604 20.282 128.009 20.4467 127.654 20.776C127.299 21.1053 127.122 21.6627 127.122 22.448V24.652H131.188V28.718H127.122V43.5H122.258ZM143.438 43.5C141.462 43.5 139.879 43.0187 138.688 42.056C137.498 41.0933 136.902 39.3833 136.902 36.926V28.718H133.672V24.652H136.902L137.472 19.598H141.766V24.652H146.858V28.718H141.766V36.964C141.766 37.876 141.956 38.5093 142.336 38.864C142.742 39.1933 143.426 39.358 144.388 39.358H146.744V43.5H143.438ZM154.72 43.5L149.21 24.652H154.036L157.304 38.218L161.104 24.652H166.5L170.3 38.218L173.606 24.652H178.432L172.884 43.5H167.83L163.802 29.402L159.774 43.5H154.72ZM187.034 43.956C185.413 43.956 184.083 43.7027 183.044 43.196C182.006 42.664 181.233 41.9673 180.726 41.106C180.22 40.2447 179.966 39.2947 179.966 38.256C179.966 36.508 180.65 35.0893 182.018 34C183.386 32.9107 185.438 32.366 188.174 32.366H192.962V31.91C192.962 30.618 192.595 29.668 191.86 29.06C191.126 28.452 190.214 28.148 189.124 28.148C188.136 28.148 187.275 28.3887 186.54 28.87C185.806 29.326 185.35 30.01 185.172 30.922H180.422C180.549 29.554 181.005 28.3633 181.79 27.35C182.601 26.3367 183.64 25.564 184.906 25.032C186.173 24.4747 187.592 24.196 189.162 24.196C191.848 24.196 193.963 24.8673 195.508 26.21C197.054 27.5527 197.826 29.4527 197.826 31.91V43.5H193.684L193.228 40.46C192.671 41.4733 191.886 42.3093 190.872 42.968C189.884 43.6267 188.605 43.956 187.034 43.956ZM188.136 40.156C189.53 40.156 190.606 39.7 191.366 38.788C192.152 37.876 192.646 36.7487 192.848 35.406H188.706C187.414 35.406 186.49 35.6467 185.932 36.128C185.375 36.584 185.096 37.154 185.096 37.838C185.096 38.5727 185.375 39.1427 185.932 39.548C186.49 39.9533 187.224 40.156 188.136 40.156ZM202.468 43.5V24.652H206.8L207.256 28.186C207.94 26.97 208.865 26.0073 210.03 25.298C211.221 24.5633 212.614 24.196 214.21 24.196V29.326H212.842C211.778 29.326 210.828 29.4907 209.992 29.82C209.156 30.1493 208.497 30.7193 208.016 31.53C207.56 32.3407 207.332 33.468 207.332 34.912V43.5H202.468ZM226.358 43.956C224.458 43.956 222.774 43.5507 221.304 42.74C219.835 41.9293 218.682 40.7893 217.846 39.32C217.01 37.8507 216.592 36.1533 216.592 34.228C216.592 32.2773 216.998 30.542 217.808 29.022C218.644 27.502 219.784 26.324 221.228 25.488C222.698 24.6267 224.42 24.196 226.396 24.196C228.246 24.196 229.88 24.6013 231.298 25.412C232.717 26.2227 233.819 27.3373 234.604 28.756C235.415 30.1493 235.82 31.7073 235.82 33.43C235.82 33.7087 235.808 34 235.782 34.304C235.782 34.608 235.77 34.9247 235.744 35.254H221.418C221.52 36.7233 222.026 37.876 222.938 38.712C223.876 39.548 225.003 39.966 226.32 39.966C227.308 39.966 228.132 39.7507 228.79 39.32C229.474 38.864 229.981 38.2813 230.31 37.572H235.25C234.896 38.7627 234.3 39.852 233.464 40.84C232.654 41.8027 231.64 42.5627 230.424 43.12C229.234 43.6773 227.878 43.956 226.358 43.956ZM226.396 28.148C225.206 28.148 224.154 28.49 223.242 29.174C222.33 29.8327 221.748 30.846 221.494 32.214H230.88C230.804 30.9727 230.348 29.9847 229.512 29.25C228.676 28.5153 227.638 28.148 226.396 28.148Z" fill="#94a3b8"/>
<rect x="11.9883" y="11.9873" width="38.0244" height="38.0244" rx="8" fill="#4A3AFF"/>
<rect x="19.7734" y="0.804199" width="5.80258" height="8.94691" rx="2.90129" fill="#702DFF"/>
<rect x="28.0996" y="0.804199" width="5.80258" height="8.94691" rx="2.90129" fill="#702DFF"/>
<rect x="36.4277" y="0.804199" width="5.80258" height="8.94691" rx="2.90129" fill="#702DFF"/>
<rect x="0.804688" y="42.228" width="5.80258" height="8.94691" rx="2.90129" transform="rotate(-90 0.804688 42.228)" fill="#702DFF"/>
<rect x="0.804688" y="33.9009" width="5.80258" height="8.94691" rx="2.90129" transform="rotate(-90 0.804688 33.9009)" fill="#702DFF"/>
<rect x="0.804688" y="25.5747" width="5.80258" height="8.94691" rx="2.90129" transform="rotate(-90 0.804688 25.5747)" fill="#702DFF"/>
<rect x="52.25" y="42.228" width="5.80258" height="8.94691" rx="2.90129" transform="rotate(-90 52.25 42.228)" fill="#702DFF"/>
<rect x="52.25" y="33.9009" width="5.80258" height="8.94691" rx="2.90129" transform="rotate(-90 52.25 33.9009)" fill="#702DFF"/>
<rect x="52.25" y="25.5747" width="5.80258" height="8.94691" rx="2.90129" transform="rotate(-90 52.25 25.5747)" fill="#702DFF"/>
<rect x="19.7734" y="52.249" width="5.80258" height="8.94691" rx="2.90129" fill="#702DFF"/>
<rect x="28.0996" y="52.249" width="5.80258" height="8.94691" rx="2.90129" fill="#702DFF"/>
<rect x="36.4277" y="52.249" width="5.80258" height="8.94691" rx="2.90129" fill="#702DFF"/>
</svg>
