<svg width="201" height="50" viewBox="0 0 201 50" fill="none" xmlns="http://www.w3.org/2000/svg">
<path d="M72.2422 38.5585C70.2915 38.5585 68.5688 38.2292 67.0742 37.5705C65.5795 36.8865 64.4015 35.9239 63.5402 34.6825C62.6788 33.4159 62.2355 31.8832 62.2102 30.0845H67.3402C67.3908 31.3259 67.8342 32.3772 68.6702 33.2385C69.5315 34.0745 70.7095 34.4925 72.2042 34.4925C73.4962 34.4925 74.5222 34.1885 75.2822 33.5805C76.0422 32.9472 76.4222 32.1112 76.4222 31.0725C76.4222 29.9832 76.0802 29.1345 75.3962 28.5265C74.7375 27.9185 73.8508 27.4245 72.7362 27.0445C71.6215 26.6645 70.4308 26.2592 69.1642 25.8285C67.1122 25.1192 65.5415 24.2072 64.4522 23.0925C63.3882 21.9779 62.8562 20.4959 62.8562 18.6465C62.8308 17.0759 63.1982 15.7332 63.9582 14.6185C64.7435 13.4785 65.8075 12.6045 67.1502 11.9965C68.4928 11.3632 70.0382 11.0465 71.7862 11.0465C73.5595 11.0465 75.1175 11.3632 76.4602 11.9965C77.8282 12.6299 78.8922 13.5165 79.6522 14.6565C80.4375 15.7965 80.8555 17.1519 80.9062 18.7225H75.7002C75.6748 17.7852 75.3075 16.9619 74.5982 16.2525C73.9142 15.5179 72.9515 15.1505 71.7102 15.1505C70.6462 15.1252 69.7468 15.3912 69.0122 15.9485C68.3028 16.4805 67.9482 17.2659 67.9482 18.3045C67.9482 19.1912 68.2268 19.9005 68.7842 20.4325C69.3415 20.9392 70.1015 21.3699 71.0642 21.7245C72.0268 22.0792 73.1288 22.4592 74.3702 22.8645C75.6875 23.3205 76.8908 23.8525 77.9802 24.4605C79.0695 25.0685 79.9435 25.8792 80.6022 26.8925C81.2608 27.8805 81.5902 29.1599 81.5902 30.7305C81.5902 32.1239 81.2355 33.4159 80.5262 34.6065C79.8168 35.7972 78.7655 36.7599 77.3722 37.4945C75.9788 38.2039 74.2688 38.5585 72.2422 38.5585ZM94.118 38.1025C92.142 38.1025 90.5587 37.6212 89.368 36.6585C88.1773 35.6959 87.582 33.9859 87.582 31.5285V23.3205H84.352V19.2545H87.582L88.152 14.2005H92.446V19.2545H97.538V23.3205H92.446V31.5665C92.446 32.4785 92.636 33.1119 93.016 33.4665C93.4213 33.7959 94.1053 33.9605 95.068 33.9605H97.424V38.1025H94.118ZM108.212 38.5585C106.591 38.5585 105.261 38.3052 104.222 37.7985C103.183 37.2665 102.411 36.5699 101.904 35.7085C101.397 34.8472 101.144 33.8972 101.144 32.8585C101.144 31.1105 101.828 29.6919 103.196 28.6025C104.564 27.5132 106.616 26.9685 109.352 26.9685H114.14V26.5125C114.14 25.2205 113.773 24.2705 113.038 23.6625C112.303 23.0545 111.391 22.7505 110.302 22.7505C109.314 22.7505 108.453 22.9912 107.718 23.4725C106.983 23.9285 106.527 24.6125 106.35 25.5245H101.6C101.727 24.1565 102.183 22.9659 102.968 21.9525C103.779 20.9392 104.817 20.1665 106.084 19.6345C107.351 19.0772 108.769 18.7985 110.34 18.7985C113.025 18.7985 115.141 19.4699 116.686 20.8125C118.231 22.1552 119.004 24.0552 119.004 26.5125V38.1025H114.862L114.406 35.0625C113.849 36.0759 113.063 36.9119 112.05 37.5705C111.062 38.2292 109.783 38.5585 108.212 38.5585ZM109.314 34.7585C110.707 34.7585 111.784 34.3025 112.544 33.3905C113.329 32.4785 113.823 31.3512 114.026 30.0085H109.884C108.592 30.0085 107.667 30.2492 107.11 30.7305C106.553 31.1865 106.274 31.7565 106.274 32.4405C106.274 33.1752 106.553 33.7452 107.11 34.1505C107.667 34.5559 108.402 34.7585 109.314 34.7585ZM123.646 38.1025V19.2545H127.978L128.434 22.7885C129.118 21.5725 130.042 20.6099 131.208 19.9005C132.398 19.1659 133.792 18.7985 135.388 18.7985V23.9285H134.02C132.956 23.9285 132.006 24.0932 131.17 24.4225C130.334 24.7519 129.675 25.3219 129.194 26.1325C128.738 26.9432 128.51 28.0705 128.51 29.5145V38.1025H123.646ZM147.11 38.1025C145.134 38.1025 143.551 37.6212 142.36 36.6585C141.17 35.6959 140.574 33.9859 140.574 31.5285V23.3205H137.344V19.2545H140.574L141.144 14.2005H145.438V19.2545H150.53V23.3205H145.438V31.5665C145.438 32.4785 145.628 33.1119 146.008 33.4665C146.414 33.7959 147.098 33.9605 148.06 33.9605H150.416V38.1025H147.11ZM161.774 38.5585C159.418 38.5585 157.594 37.8239 156.302 36.3545C155.036 34.8852 154.402 32.7319 154.402 29.8945V19.2545H159.228V29.4385C159.228 31.0599 159.558 32.3012 160.216 33.1625C160.875 34.0239 161.914 34.4545 163.332 34.4545C164.675 34.4545 165.777 33.9732 166.638 33.0105C167.525 32.0479 167.968 30.7052 167.968 28.9825V19.2545H172.832V38.1025H168.538L168.158 34.9105C167.576 36.0252 166.727 36.9119 165.612 37.5705C164.523 38.2292 163.244 38.5585 161.774 38.5585ZM177.825 46.4625V19.2545H182.157L182.689 21.9525C183.297 21.1165 184.095 20.3819 185.083 19.7485C186.097 19.1152 187.401 18.7985 188.997 18.7985C190.771 18.7985 192.354 19.2292 193.747 20.0905C195.141 20.9519 196.243 22.1299 197.053 23.6245C197.864 25.1192 198.269 26.8165 198.269 28.7165C198.269 30.6165 197.864 32.3139 197.053 33.8085C196.243 35.2779 195.141 36.4432 193.747 37.3045C192.354 38.1405 190.771 38.5585 188.997 38.5585C187.579 38.5585 186.337 38.2925 185.273 37.7605C184.209 37.2285 183.348 36.4812 182.689 35.5185V46.4625H177.825ZM187.971 34.3025C189.517 34.3025 190.796 33.7832 191.809 32.7445C192.823 31.7059 193.329 30.3632 193.329 28.7165C193.329 27.0699 192.823 25.7145 191.809 24.6505C190.796 23.5865 189.517 23.0545 187.971 23.0545C186.401 23.0545 185.109 23.5865 184.095 24.6505C183.107 25.6892 182.613 27.0319 182.613 28.6785C182.613 30.3252 183.107 31.6805 184.095 32.7445C185.109 33.7832 186.401 34.3025 187.971 34.3025Z" fill="#94a3b8"/>
<path d="M0.423828 21.0569C0.423828 9.63621 9.68211 0.37793 21.1028 0.37793V28.9434C21.1028 40.364 11.8445 49.6223 0.423828 49.6223V21.0569Z" fill="#4A3AFF"/>
<path d="M24.1025 11.6147C24.1025 5.40881 29.1334 0.37793 35.3393 0.37793C41.5452 0.37793 46.5761 5.4088 46.5761 11.6147V12.2635C46.5761 18.4694 41.5452 23.5002 35.3393 23.5002C29.1334 23.5002 24.1025 18.4694 24.1025 12.2635V11.6147Z" fill="#4CBFFF"/>
<path d="M24.1025 37.7368C24.1025 31.5309 29.1334 26.5 35.3393 26.5C41.5452 26.5 46.5761 31.5309 46.5761 37.7368V38.3855C46.5761 44.5914 41.5452 49.6223 35.3393 49.6223C29.1334 49.6223 24.1025 44.5914 24.1025 38.3855V37.7368Z" fill="#9328FF"/>
</svg>
