<svg width="218" height="62" viewBox="0 0 218 62" fill="none" xmlns="http://www.w3.org/2000/svg">
<path d="M82.4186 43.4995V20.8135H74.6666V16.8995H95.0726V20.8135H87.2826V43.4995H82.4186ZM104.306 43.9555C102.406 43.9555 100.721 43.5502 99.2517 42.7395C97.7824 41.9288 96.6297 40.7888 95.7937 39.3195C94.9577 37.8502 94.5397 36.1528 94.5397 34.2275C94.5397 32.2768 94.9451 30.5415 95.7557 29.0215C96.5917 27.5015 97.7317 26.3235 99.1757 25.4875C100.645 24.6262 102.368 24.1955 104.344 24.1955C106.193 24.1955 107.827 24.6008 109.246 25.4115C110.664 26.2222 111.766 27.3368 112.552 28.7555C113.362 30.1488 113.768 31.7068 113.768 33.4295C113.768 33.7082 113.755 33.9995 113.73 34.3035C113.73 34.6075 113.717 34.9242 113.692 35.2535H99.3657C99.4671 36.7228 99.9737 37.8755 100.886 38.7115C101.823 39.5475 102.95 39.9655 104.268 39.9655C105.256 39.9655 106.079 39.7502 106.738 39.3195C107.422 38.8635 107.928 38.2808 108.258 37.5715H113.198C112.843 38.7622 112.248 39.8515 111.412 40.8395C110.601 41.8022 109.588 42.5622 108.372 43.1195C107.181 43.6768 105.826 43.9555 104.306 43.9555ZM104.344 28.1475C103.153 28.1475 102.102 28.4895 101.19 29.1735C100.278 29.8322 99.6951 30.8455 99.4417 32.2135H108.828C108.752 30.9722 108.296 29.9842 107.46 29.2495C106.624 28.5148 105.585 28.1475 104.344 28.1475ZM127.093 43.9555C125.167 43.9555 123.47 43.5375 122.001 42.7015C120.531 41.8655 119.366 40.7002 118.505 39.2055C117.669 37.7108 117.251 36.0008 117.251 34.0755C117.251 32.1502 117.669 30.4402 118.505 28.9455C119.366 27.4508 120.531 26.2855 122.001 25.4495C123.47 24.6135 125.167 24.1955 127.093 24.1955C129.499 24.1955 131.526 24.8288 133.173 26.0955C134.819 27.3368 135.871 29.0595 136.327 31.2635H131.197C130.943 30.3515 130.437 29.6422 129.677 29.1355C128.942 28.6035 128.068 28.3375 127.055 28.3375C125.712 28.3375 124.572 28.8442 123.635 29.8575C122.697 30.8708 122.229 32.2768 122.229 34.0755C122.229 35.8742 122.697 37.2802 123.635 38.2935C124.572 39.3068 125.712 39.8135 127.055 39.8135C128.068 39.8135 128.942 39.5602 129.677 39.0535C130.437 38.5468 130.943 37.8248 131.197 36.8875H136.327C135.871 39.0155 134.819 40.7255 133.173 42.0175C131.526 43.3095 129.499 43.9555 127.093 43.9555ZM140.644 43.4995V16.1395H145.508V27.5395C146.141 26.5008 146.99 25.6902 148.054 25.1075C149.143 24.4995 150.384 24.1955 151.778 24.1955C154.108 24.1955 155.907 24.9302 157.174 26.3995C158.466 27.8688 159.112 30.0222 159.112 32.8595V43.4995H154.286V33.3155C154.286 31.6942 153.956 30.4528 153.298 29.5915C152.664 28.7302 151.651 28.2995 150.258 28.2995C148.89 28.2995 147.75 28.7808 146.838 29.7435C145.951 30.7062 145.508 32.0488 145.508 33.7715V43.4995H140.644ZM163.763 43.4995V16.1395H168.627V43.4995H163.763ZM176.219 21.7255C175.332 21.7255 174.598 21.4595 174.015 20.9275C173.458 20.3955 173.179 19.7242 173.179 18.9135C173.179 18.1028 173.458 17.4442 174.015 16.9375C174.598 16.4055 175.332 16.1395 176.219 16.1395C177.106 16.1395 177.828 16.4055 178.385 16.9375C178.968 17.4442 179.259 18.1028 179.259 18.9135C179.259 19.7242 178.968 20.3955 178.385 20.9275C177.828 21.4595 177.106 21.7255 176.219 21.7255ZM173.787 43.4995V24.6515H178.651V43.4995H173.787ZM184.602 43.4995V28.7175H182.018V24.6515H184.602V22.4475C184.602 20.1675 185.172 18.5462 186.312 17.5835C187.477 16.6208 189.048 16.1395 191.024 16.1395H193.114V20.2815H191.784C190.948 20.2815 190.352 20.4462 189.998 20.7755C189.643 21.1048 189.466 21.6622 189.466 22.4475V24.6515H193.532V28.7175H189.466V43.4995H184.602ZM199.74 51.8595L204.11 42.2455H202.97L195.636 24.6515H200.918L206.2 37.9135L211.71 24.6515H216.878L204.908 51.8595H199.74Z" fill="#94a3b8"/>
<path d="M32.9219 8.84226C32.9219 5.86885 36.5379 4.40339 38.608 6.53787L57.6821 26.2056C58.9383 27.5009 59.6408 29.2344 59.6408 31.0388V53.8041C59.6408 56.7775 56.0248 58.243 53.9547 56.1085L34.8806 36.4407C33.6244 35.1454 32.9219 33.4119 32.9219 31.6075V8.84226Z" fill="#9328FF"/>
<path d="M16.3633 8.19578C16.3633 5.22237 19.9793 3.75691 22.0494 5.89139L40.842 25.2689C42.2788 26.7503 43.0823 28.733 43.0823 30.7966V53.1576C43.0823 56.131 39.4662 57.5965 37.3961 55.462L18.322 35.7942C17.0658 34.4989 16.3633 32.7654 16.3633 30.9611V8.19578Z" fill="#4CBFFF"/>
<path d="M0.359375 8.84226C0.359375 5.86885 3.97542 4.40339 6.04548 6.53787L25.1196 26.2056C26.3758 27.5009 27.0783 29.2344 27.0783 31.0388V53.8041C27.0783 56.7775 23.4623 58.243 21.3922 56.1085L2.3181 36.4407C1.06191 35.1454 0.359375 33.4119 0.359375 31.6075V8.84226Z" fill="#4A3AFF"/>
</svg>
